HIERARCHY
ROOT Hips
{
  OFFSET 0 0 0
  CHANNELS 6 Xposition Yposition Zposition Zrotation Xrotation Yrotation
  JOINT Spine
  {
    OFFSET 0 9.9235 -1.22729
    CHANNELS 3 Zrotation Xrotation Yrotation
    JOINT Spine1
    {
      OFFSET -9.9969e-05 11.6454 -1.4223
      CHANNELS 3 Zrotation Xrotation Yrotation
      JOINT Spine2
      {
        OFFSET 9.98118e-05 13.3602 -1.6265
        CHANNELS 3 Zrotation Xrotation Yrotation
        JOINT Neck
        {
          OFFSET 0 15.0325 0.7929
          CHANNELS 3 Zrotation Xrotation Yrotation
          JOINT Head
          {
            OFFSET 0 10.3218 3.1424
            CHANNELS 3 Zrotation Xrotation Yrotation
            End Site
            {
              OFFSET 0.0002 18.4747 6.6364
            }
          }
        }
        JOINT LeftShoulder
        {
          OFFSET 6.1058 9.1104 0.7056
          CHANNELS 3 Zrotation Xrotation Yrotation
          JOINT LeftArm
          {
            OFFSET 12.655 -0.265904 -2.60091
            CHANNELS 3 Zrotation Xrotation Yrotation
            JOINT LeftForeArm
            {
              OFFSET 27.4047 0 0
              CHANNELS 3 Zrotation Xrotation Yrotation
              JOINT LeftHand
              {
                OFFSET 27.6145 -1.98104e-05 0
                CHANNELS 3 Zrotation Xrotation Yrotation
                End Site
                {
                  OFFSET 12.7755 0 0
                }
              }
            }
          }
        }
        JOINT RightShoulder
        {
          OFFSET -6.1057 9.1105 0.7056
          CHANNELS 3 Zrotation Xrotation Yrotation
          JOINT RightArm
          {
            OFFSET -12.655 -0.265999 -2.6009
            CHANNELS 3 Zrotation Xrotation Yrotation
            JOINT RightForeArm
            {
              OFFSET -27.4047 0 0
              CHANNELS 3 Zrotation Xrotation Yrotation
              JOINT RightHand
              {
                OFFSET -27.6145 0 0
                CHANNELS 3 Zrotation Xrotation Yrotation
                End Site
                {
                  OFFSET -12.7755 0 0
                }
              }
            }
          }
        }
      }
    }
  }
  JOINT RightUpLeg
  {
    OFFSET -9.12449 -6.6564 -0.0554004
    CHANNELS 3 Zrotation Xrotation Yrotation
    JOINT RightLeg
    {
      OFFSET -0.245231 -40.5954 -0.51698
      CHANNELS 3 Zrotation Xrotation Yrotation
      JOINT RightFoot
      {
        OFFSET 0.244701 -42.0479 -2.0602
        CHANNELS 3 Zrotation Xrotation Yrotation
        JOINT RightToe
        {
          OFFSET -0.373402 -10.4922 12.6407
          CHANNELS 3 Zrotation Xrotation Yrotation
          End Site
          {
            OFFSET 0 0 9.9925
          }
        }
      }
    }
  }
  JOINT LeftUpLeg
  {
    OFFSET 9.1245 -6.6564 -0.055401
    CHANNELS 3 Zrotation Xrotation Yrotation
    JOINT LeftLeg
    {
      OFFSET 0.245022 -40.5954 -0.518725
      CHANNELS 3 Zrotation Xrotation Yrotation
      JOINT LeftFoot
      {
        OFFSET -0.244696 -42.048 -2.0576
        CHANNELS 3 Zrotation Xrotation Yrotation
        JOINT LeftToe
        {
          OFFSET 0.373399 -10.4922 12.6407
          CHANNELS 3 Zrotation Xrotation Yrotation
          End Site
          {
            OFFSET 0 0 9.9925
          }
        }
      }
    }
  }
}
MOTION
Frames: 12
Frame Time:	0.0333333
 -0.05123   97.9313 -0.299134   2.1419 -5.44023 -15.7345 -0.986492   7.03234 -0.870057 -0.136518   2.12375 -0.552956 -0.131378   2.12789 -0.542347  -8.8929  3.22341 -2.78478 -65.0766  9.19842 -5.15049  6.87347e-17 -1.27222e-14     -21.7144 -4.76354  16.2124 -3.45308 11.4102 4.03975 10.5716  71.8622 -23.0107  3.69164  3.36809e-15 -3.18055e-15      15.6474 8.01661   28.78 2.69117     1.21789 -0.00385609     2.46531 -4.65949 -4.83734  13.9065  2.96068 -6.45751  8.40391 1.18003 15.2618 1.05693  -6.02443  -3.59973 0.0319529 -2.92662e-17      1.27803  1.59067e-15  -1.61914 -0.821062  -11.0247 -0.643443   21.0821  -9.61672 0.405985 -16.2466 -3.39249 0.000338584   0.0816697  3.1737e-15 
-0.252494   97.2333    0.3456  3.15355 -5.30239 -14.8376 -2.24733  6.07631 -2.06472 0.0234607   1.07616  -1.23686 -0.238753   2.92716  0.252689 -8.68615   4.1802 -2.78988 -65.6321  10.0432 -4.79052  -0.50291 -0.406647  -22.2856 -3.58689  15.3883 -2.85069 11.3879 4.60593 9.95645  71.6403 -23.0811  2.75039 -0.340265  0.531656    16.688 8.73299 28.2337 2.28853   1.76567 -0.599619   2.31753 -4.63346 -4.82916  14.2225  2.48344 -7.81118  9.70378 0.400911  17.8658  4.21744 -6.51115 -7.04095 0.863805    0.369951    0.225475 -0.00267462 -2.66829 0.821784 -10.9256  -1.3094  19.8469 -9.87378  1.63548 -17.1692 -2.70123   1.05936   -1.5471 -0.919865 
-0.586174   96.1438   1.07371   2.7879 -5.43775 -13.6388 -2.47629  5.47879 -2.90263 0.585783 0.384468 -1.67584 -0.490295   3.71261  0.483001  -9.1035   4.9405 -3.13702 -65.7391  10.6788 -4.68825  -1.41928 -0.459676  -23.3628 -3.3135 14.4137 -1.4365 11.5306  5.2891 9.21231  70.8963 -22.8141  1.59204 -0.282933  0.977083    18.863 10.0764 27.2745 1.68748   2.36895 -0.653454   2.12158 -4.84507 -5.05813  14.7743   3.3583 -8.39845  10.3842 0.13376 19.8862 6.38681 -6.81404 -9.89737  1.10889  0.428496 -0.390532  0.206922 -2.37868  2.04756 -10.5356 -1.08432  20.9569 -9.77137  1.66193 -20.4975 -2.59329  1.89577  4.00801 -1.13166 
-0.865519   95.7936    2.1816    2.507 -5.76157 -12.6022 -2.74617  4.51973 -3.65067   0.680721 -0.0752573   -2.32165 -0.745994   4.72599  0.653459 -9.39904  5.99944  -3.3256 -65.5972  12.1551 -6.31511  -2.08017 -0.329642  -23.3403  -3.59789   13.1451 -0.914838 11.7215 6.11224  8.6467  69.4674  -22.192 0.567962 -0.229649   1.08152   21.4753 11.7099 25.7923 1.19029  2.69844 -1.19938  2.19543 -4.98129 -5.30247  15.3688  3.38629 -8.32865  11.3215 0.480555  21.4025  7.17049 -6.61191 -11.6638  1.83792 -0.360413 -0.776536   1.27582 -2.05027  3.08605 -10.8983 -1.04213  21.6003 -9.30975   1.7917 -20.8843 -2.36012  1.57594   1.4975 -2.66725 
-0.994194   95.4102   3.38898  2.32237 -5.81014 -12.0499 -2.81576  3.43874 -4.46017    0.6207 -0.789537  -2.99391 -1.18042  5.43573 0.685491 -9.58926  6.94559 -3.61847 -64.4596  14.2213 -9.76614  -2.72798 -0.126047  -22.5947 -3.50043  11.6496 -1.90672 11.6617   6.765 8.19961  66.7405 -21.3427 0.110358 -0.155585   1.13485   24.9495   12.707  23.5733 0.991909  3.01751 -1.79934  2.35431  -5.1231 -5.55959  16.0868  3.63002 -8.72122  12.3285 0.880458  23.8623  5.80859 -5.71136 -14.0081   3.2433 -0.556949  -1.47766   1.86606 -1.94344  3.90652 -11.2369 -1.03759  22.2285 -8.74253  2.28989 -22.2525  -2.1729  1.86616  1.03564 -2.43405 
-0.964707   95.0731   4.75739  2.29127 -5.47972 -11.4738 -2.97214  2.08276 -5.32531 0.682481 -1.80504 -3.92723 -1.51217  5.92977 0.465641 -9.70378  7.76854  -4.1671 -61.8612  16.4081 -14.4907 -3.58413 0.109949 -23.2288 -2.49342  9.89736 -3.21144 11.7173 7.42683 7.62392 62.3827 -20.725 0.32542 0.0905659   1.09042   29.1013  12.2868   20.749 0.836672  3.39983 -2.26994   2.5247 -5.14144 -5.81112  17.1791  3.69103 -9.70951  13.6798 0.806051  26.8907  3.92732 -4.35183 -15.4952  5.00505 -0.0205439   -2.56893    1.94267 -1.96863  4.63794 -11.5636 -0.931269   22.3865  -7.93642  2.38159  -23.856 -3.00969  3.43092  1.78266 0.760713 
-0.840779   94.9428   6.19158  2.49147 -4.98561 -11.6666 -3.65385 0.973701 -6.09387 0.911632 -3.05023  -4.7485  -1.6323  6.16212 0.241652 -9.51022  8.29795 -4.79906 -56.9654  18.0784 -20.2759 -4.54722 0.132536 -25.9826 -0.651524   7.67836  -3.38462 12.1226 7.93052 6.96522 56.7365  -20.37 1.62255 0.235208  1.17625  33.4353  10.4541  17.8707 0.626881  3.80858 -2.33247  2.58281  -5.0262 -6.06317  18.8533  3.32903 -11.0852  14.5888 -0.0987424     30.209    3.11353 -4.26533 -15.9232  5.83648 0.344974 -3.09356  2.00435 -2.34398  5.40511 -11.7159 -0.96408  21.6655 -6.77338  2.54263 -24.4368 -3.47511 3.87289 1.83131 2.87182 
-0.6181 95.1221 7.55784  3.05559 -4.51395 -12.6041 -4.97381 0.433675 -6.76442  1.17471 -4.06772 -5.28401 -1.54893  6.15257  0.37162 -8.60658  8.32848 -5.50275 -49.6393  18.3341 -27.6205  -5.18905 -0.167837  -28.7174  1.90915  4.75182 -2.95449  12.623 7.96485 6.32166  50.4174 -20.4229  4.56793 0.144776  1.26474   37.303  7.96671  15.4313 0.596047  4.26252 -2.09265  2.64252 -4.75191 -6.17924  21.0019  2.36247 -13.3501  14.7802 -2.0428 33.9337 4.39093 -3.49991 -17.4025  5.93868 0.894308 -3.76015  1.87048 -3.04909  6.49549 -11.5979 -1.37236  19.5535 -5.34892  2.89299 -24.0056  -3.8466  3.92939 0.780974  5.01009 
-0.283355   95.4164   8.63211  3.71797 -4.27247 -14.2639 -6.43065  0.89292  -7.1153  1.31238  -4.5178 -5.07799 -1.46499  5.99547  1.15385 -6.79891   7.5006 -6.64066 -40.6454    16.02 -35.9365  -5.11405 -0.603192  -30.4229 5.18288 1.45938  -2.892  13.014 7.44533 6.09254  44.0443 -20.9836  9.36563 -0.248591    1.2111   40.4933  5.20688  13.6359 0.884265  4.56275 -1.59165  2.91813 -4.26895 -5.83686  23.1461  1.28269 -16.9226  14.2706 -4.3632 36.9833  5.9564 -2.20414 -18.9226  5.23905  1.43427 -4.14054  1.42172 -3.80649  7.86349 -11.4186 -2.26301  16.6755 -3.68815  3.48429  -23.983 -3.82584  1.94916 0.116604  4.79279 
0.0679542   95.6208   9.56816  4.10835 -4.37137 -16.1697   -7.729  1.94004 -7.14074  1.39179 -4.11164 -4.35773 -1.43167  5.90781  2.30645 -4.34806  6.22303 -8.08482 -31.8763  10.7747 -43.3658  -4.50372 -0.941879  -31.4772  8.93922 -1.24715 -3.17279 12.9628 6.72649 6.53075   37.779 -22.6343   15.569 -0.705302   1.18505   42.6176 1.85187 12.8025 1.26484   4.24159 -0.865303   3.29559 -3.81841 -5.09447  25.1673 0.887603 -21.4452  13.5176 -6.10908   38.794  6.14951 -0.929065  -19.4424   4.51857  1.76999 -4.26487 0.795606 -4.53647  9.50507 -11.4338  -3.0103  13.8224 -1.97517  4.12812  -24.094 -4.26135 -0.304643  -1.25228   4.15229 
0.340452  95.5403  10.7017  3.79283 -4.59145 -18.8046 -8.26434  2.75799 -6.73949   1.3423 -3.00412 -3.42748 -1.39717  5.80608  3.39967 -1.92485  5.14939 -9.30179 -24.6083  3.61135 -48.6646 -3.47688 -1.10515 -31.6289  12.4823 -2.67069 -3.31199 12.4344 6.11555 7.70661  31.5876 -25.6062  22.2553 -1.13299   1.1278   44.149 -1.94741  13.1061  1.90391    3.33521 -0.0104291    3.73205 -3.78337 -4.29488  26.8169  2.16277 -25.9011  12.9373 -6.84493   39.087   5.0191 -0.76178 -17.8938  3.60316  1.75567 -4.45984 0.259426  -5.3039  10.9159 -12.0175  -3.18294   12.2009 -0.490415  4.97527 -24.2552 -4.92516  -1.5177 -1.87297  3.05284 
0.387747  95.1116  12.3552  2.91869 -4.63299 -21.0015 -8.14088  2.89372  -6.3219  1.17797 -1.91704 -2.69326 -1.50658  5.80452  4.13529 0.102966  4.57334 -10.3393 -19.0129 -4.25728 -52.2733 -2.50452 -1.21482 -30.9889  15.6283 -3.19688 -3.40863 11.6719 5.82796 8.80728  25.9348 -29.6049  28.9373 -1.36215 0.991199  44.8822 -5.4488 14.3514 2.60811  2.28379 0.823164  4.25623 -3.91899 -3.41073  28.2332  4.83125 -29.8984  12.9769 -6.71962  38.5096  3.97942 -1.73946 -15.3763  2.73442   1.42096  -4.51489 -0.125175 -5.67674  12.3428 -12.8184  -3.0081  11.5502 0.875121  5.85349 -24.7997 -5.26108 -1.74163 -2.61466 0.242891 
